<svg xmlns="http://www.w3.org/2000/svg" xmlns:xlink="http://www.w3.org/1999/xlink" version="1.1" x="0px" y="0px" viewBox="0 0 100 100" enable-background="new 0 0 100 100" xml:space="preserve"><path d="M83.404,58.759c-0.061-0.082-0.122-0.162-0.186-0.242c-0.235-0.297-0.483-0.582-0.751-0.844  c-0.013-0.013-0.024-0.027-0.037-0.04c-0.282-0.272-0.585-0.518-0.899-0.751c-0.08-0.059-0.161-0.116-0.242-0.173  c-0.296-0.206-0.602-0.399-0.921-0.572c-0.028-0.015-0.054-0.033-0.083-0.048c-0.345-0.183-0.705-0.339-1.07-0.482  c-0.093-0.036-0.186-0.07-0.28-0.103c-0.335-0.12-0.676-0.227-1.024-0.313c-0.042-0.011-0.083-0.025-0.126-0.035  c-0.385-0.091-0.777-0.157-1.173-0.208c-0.099-0.013-0.198-0.022-0.297-0.033c-0.354-0.036-0.71-0.058-1.068-0.062  c-0.042,0-0.083-0.007-0.124-0.007c-0.016,0-0.032,0.002-0.048,0.002c-0.181,0-0.362,0.013-0.543,0.022  c-0.131,0.006-0.262,0.008-0.393,0.019c-0.188,0.016-0.374,0.043-0.561,0.068c-0.125,0.016-0.25,0.027-0.375,0.047  c-0.203,0.033-0.405,0.08-0.607,0.124c-0.106,0.023-0.214,0.04-0.32,0.066c-0.307,0.076-0.612,0.164-0.914,0.266  c-1.73,0.591-3.479,1.108-5.242,1.552c-10.579,2.661-21.661,2.661-32.239,0c-1.763-0.443-3.512-0.96-5.243-1.552  c-0.301-0.102-0.606-0.189-0.913-0.266c-0.109-0.027-0.219-0.044-0.328-0.068c-0.199-0.043-0.398-0.089-0.599-0.122  c-0.126-0.021-0.252-0.031-0.378-0.048c-0.186-0.024-0.372-0.052-0.558-0.067c-0.131-0.011-0.262-0.012-0.394-0.019  c-0.181-0.009-0.362-0.021-0.542-0.022c-0.016,0-0.032-0.002-0.048-0.002c-0.042,0-0.083,0.007-0.124,0.007  c-0.358,0.004-0.714,0.026-1.068,0.062c-0.099,0.01-0.198,0.02-0.296,0.033c-0.396,0.051-0.789,0.117-1.174,0.208  c-0.042,0.01-0.082,0.024-0.124,0.034c-0.349,0.087-0.691,0.194-1.027,0.314c-0.093,0.034-0.186,0.067-0.278,0.103  c-0.367,0.143-0.727,0.3-1.072,0.483c-0.027,0.014-0.053,0.032-0.08,0.046c-0.32,0.173-0.627,0.367-0.925,0.575  c-0.081,0.056-0.161,0.113-0.24,0.172c-0.314,0.233-0.618,0.479-0.9,0.752c-0.012,0.012-0.022,0.025-0.035,0.037  c-0.27,0.263-0.518,0.548-0.754,0.847c-0.062,0.079-0.124,0.159-0.184,0.24c-0.237,0.322-0.462,0.656-0.658,1.017  c-2.361,4.327,0.593,10.46,6.916,12.616c3.568,1.219,7.202,2.178,10.87,2.902C35.42,88.12,43.212,92.833,50,92.833  s14.58-4.714,16.275-17.54c3.668-0.724,7.301-1.683,10.87-2.902c6.323-2.156,9.277-8.289,6.916-12.616  C83.866,59.415,83.641,59.081,83.404,58.759z M50,87.833c-5.616,0-11.617-4.708-11.617-17.922v-5.849  c3.348,0.546,6.737,0.844,10.146,0.913c0.073,2.496,0.292,4.895,0.601,6.784c0.193,1.172,0.399,2.148,0.571,2.831  C49.869,75.276,50,75.666,50,75.666s0.131-0.39,0.298-1.075c0.172-0.683,0.378-1.659,0.571-2.831  c0.31-1.889,0.528-4.288,0.601-6.784c3.411-0.069,6.8-0.367,10.146-0.913v5.848C61.617,83.125,55.616,87.833,50,87.833z   M29.499,34.5c4.044,0,7.333-3.29,7.333-7.333V14.5c0-4.044-3.29-7.333-7.333-7.333s-7.333,3.29-7.333,7.333v12.666  C22.166,31.21,25.455,34.5,29.499,34.5z M29.499,29.5c-1.287,0-2.333-1.047-2.333-2.333V16.625c0.579,0.635,1.406,1.042,2.333,1.042  s1.754-0.406,2.333-1.042v10.541C31.833,28.453,30.786,29.5,29.499,29.5z M70.501,34.5c4.044,0,7.333-3.29,7.333-7.333V14.5  c0-4.044-3.29-7.333-7.333-7.333s-7.333,3.29-7.333,7.333v12.666C63.167,31.21,66.457,34.5,70.501,34.5z M70.501,29.5  c-1.287,0-2.333-1.047-2.333-2.333V16.625c0.579,0.635,1.406,1.042,2.333,1.042s1.754-0.406,2.333-1.042v10.541  C72.834,28.453,71.788,29.5,70.501,29.5z M16.805,46.954c-0.756,0.392-1.535,0.741-2.241,1.201  c-0.743,0.402-1.385,0.927-2.064,1.371c-0.599,0.534-1.267,0.975-1.781,1.52c-0.277,0.257-0.547,0.508-0.808,0.75  c-0.242,0.263-0.477,0.517-0.702,0.761c-0.47,0.487-0.841,0.958-1.187,1.387c-0.175,0.212-0.332,0.418-0.496,0.602  c-0.142,0.204-0.272,0.392-0.39,0.561c-0.474,0.678-0.776,1.051-0.776,1.051s0.063-0.476,0.23-1.286  c0.043-0.202,0.09-0.425,0.142-0.669c0.073-0.242,0.172-0.498,0.271-0.777c0.197-0.561,0.423-1.214,0.79-1.838  c0.172-0.325,0.351-0.664,0.537-1.014c0.225-0.326,0.458-0.664,0.697-1.011c0.462-0.717,1.107-1.34,1.729-2.035  c0.697-0.609,1.394-1.29,2.227-1.81c0.787-0.593,1.692-1.022,2.573-1.49c0.93-0.361,1.846-0.767,2.81-0.974  c0.938-0.293,1.909-0.372,2.826-0.503c0.933-0.016,1.826-0.097,2.67,0.023c0.419,0.046,0.827,0.09,1.221,0.134  c0.386,0.089,0.76,0.175,1.118,0.258c0.717,0.133,1.343,0.385,1.891,0.602c0.274,0.108,0.531,0.198,0.761,0.301  c0.224,0.122,0.43,0.234,0.615,0.335c0.736,0.408,1.127,0.669,1.127,0.669s-0.49-0.018-1.298-0.097  c-0.201-0.02-0.422-0.042-0.664-0.066c-0.247,0.004-0.507-0.013-0.785-0.02c-0.555-0.02-1.17-0.05-1.841-0.012  c-0.331,0.011-0.677,0.023-1.034,0.035c-0.354,0.039-0.719,0.079-1.095,0.121c-0.748,0.032-1.519,0.249-2.314,0.353  c-0.781,0.221-1.596,0.367-2.387,0.664C18.371,46.279,17.596,46.639,16.805,46.954z M93.638,56.157c0,0-0.302-0.373-0.776-1.051  c-0.118-0.169-0.248-0.357-0.39-0.561c-0.164-0.184-0.321-0.39-0.496-0.602c-0.345-0.428-0.716-0.899-1.187-1.387  c-0.225-0.244-0.459-0.498-0.702-0.761c-0.261-0.242-0.53-0.492-0.808-0.75c-0.514-0.545-1.182-0.986-1.781-1.52  c-0.679-0.444-1.321-0.969-2.064-1.371c-0.706-0.46-1.485-0.809-2.241-1.201c-0.791-0.315-1.565-0.674-2.375-0.907  c-0.791-0.296-1.606-0.442-2.387-0.664c-0.795-0.104-1.566-0.32-2.314-0.353c-0.376-0.042-0.741-0.082-1.095-0.121  c-0.357-0.012-0.703-0.023-1.034-0.035c-0.671-0.039-1.286-0.008-1.841,0.012c-0.278,0.007-0.538,0.024-0.785,0.02  c-0.241,0.024-0.463,0.046-0.664,0.066c-0.808,0.08-1.298,0.097-1.298,0.097s0.392-0.261,1.127-0.669  c0.186-0.102,0.391-0.213,0.615-0.335c0.23-0.104,0.487-0.193,0.761-0.301c0.547-0.217,1.174-0.469,1.891-0.602  c0.358-0.083,0.732-0.169,1.118-0.258c0.394-0.043,0.802-0.088,1.221-0.134c0.845-0.12,1.738-0.039,2.67-0.023  c0.917,0.132,1.888,0.21,2.826,0.503c0.963,0.208,1.879,0.613,2.81,0.974c0.881,0.468,1.786,0.897,2.573,1.49  c0.833,0.521,1.53,1.201,2.227,1.81c0.622,0.695,1.267,1.318,1.729,2.035c0.239,0.347,0.472,0.685,0.697,1.011  c0.186,0.351,0.364,0.689,0.537,1.014c0.366,0.624,0.592,1.277,0.79,1.838c0.099,0.28,0.199,0.535,0.271,0.777  c0.052,0.244,0.099,0.467,0.142,0.669C93.575,55.681,93.638,56.157,93.638,56.157z M41.25,44.667c0-1.509,1.223-2.732,2.732-2.732  c1.509,0,2.732,1.223,2.732,2.732s-1.223,2.732-2.732,2.732C42.473,47.399,41.25,46.176,41.25,44.667z M53.286,44.667  c0-1.509,1.223-2.732,2.732-2.732c1.509,0,2.732,1.223,2.732,2.732s-1.223,2.732-2.732,2.732  C54.509,47.399,53.286,46.176,53.286,44.667z"></path></svg>